<svg width="42" height="28" viewBox="0 0 42 28" fill="none" xmlns="http://www.w3.org/2000/svg">
<path d="M7.84277 12.5341C7.85154 12.8867 7.90416 13.1952 8.00063 13.3715C8.14973 13.6536 11.5964 17.1617 18.0248 23.5874C21.8135 27.3776 21.9012 27.4393 23.1553 27.8183C23.6727 27.977 25.3303 28.0652 25.5145 27.9418C25.5671 27.9065 25.7776 27.836 25.9968 27.7743C27.0229 27.4834 27.3211 27.2366 30.3204 24.2485C31.8991 22.6707 33.3286 21.1723 33.4864 20.9343C33.9337 20.2644 34.2319 19.3301 34.2933 18.4398L34.3371 17.673L34.1091 18.334C33.7145 19.4535 33.3023 19.9559 30.3204 22.9263C27.6105 25.6324 27.514 25.7205 26.7861 26.0731C25.9179 26.4874 25.3566 26.6196 24.4796 26.6196C23.6464 26.6196 22.8659 26.4257 22.1029 26.029C21.5328 25.7381 20.9365 25.1652 14.7887 19.0039C11.114 15.3107 8.07957 12.2256 8.05325 12.1463C7.94801 11.8114 7.84277 12.0141 7.84277 12.5341Z" fill="#FFC148"/>
<path d="M14.3328 0.916719C14.1135 1.27811 14.0346 1.81579 14.1135 2.35347C14.1661 2.76775 14.2188 2.82063 18.3056 6.94578L22.4451 11.1062L19.0949 14.4733L15.736 17.8492L12.5612 14.6672C9.28998 11.3971 9.21982 11.3354 8.47436 11.2648C8.24634 11.2472 8.15864 11.2825 8.02709 11.494C7.86923 11.7408 7.86923 11.7496 8.02709 12.0229C8.11479 12.1727 11.2019 15.3107 14.8765 19.0039C22.0592 26.1965 21.875 26.0378 23.1379 26.3992C23.7694 26.5843 24.9796 26.6108 25.6461 26.4521C25.9093 26.3904 26.4267 26.1965 26.7863 26.0202C27.4002 25.7293 27.6457 25.509 30.3469 22.8117C33.5041 19.6562 33.7234 19.3829 34.118 18.0872L34.3461 17.3468L34.118 16.624C33.8549 15.769 33.3989 15.0374 32.7148 14.3675L32.2237 13.8915V9.25516C32.2237 4.10754 32.2237 4.13398 31.6449 3.45527C31.4782 3.26136 31.1713 3.01455 30.952 2.90878C30.5662 2.72368 30.5662 2.72368 30.189 2.89115C29.6453 3.12914 29.2682 3.48172 28.9963 4.00177L28.7595 4.4513L28.7332 8.85851L28.7069 13.2657L27.6194 14.3675C26.4442 15.5575 26.1724 15.9806 25.997 16.8973C25.9093 17.338 25.9093 17.5672 25.997 17.9991C26.1811 18.9775 26.4179 19.3212 27.9965 20.9078L29.4611 22.3886L29.084 22.7589L28.7069 23.1379L26.9178 21.3221C25.3567 19.7443 25.0936 19.4358 24.8393 18.8981C24.5762 18.3428 24.5499 18.2194 24.5499 17.4526C24.5499 16.2009 24.7955 15.7426 26.2162 14.2882C27.1897 13.2922 27.3125 13.1335 27.3125 12.8603C27.3125 12.5782 26.9353 12.1815 21.5505 6.77831C18.3758 3.58749 15.6921 0.943163 15.5781 0.881462C15.4641 0.828575 15.1747 0.749245 14.9379 0.713987C14.5169 0.643473 14.4994 0.652287 14.3328 0.916719Z" fill="#FFDD67"/>
<path d="M10.0969 2.37169C9.83384 2.81241 9.8163 3.87895 10.0794 4.28442C10.1759 4.43426 12.1228 6.40869 14.403 8.68281L18.5513 12.8168L19.402 11.9618L20.2527 11.1068L15.9553 6.7789C13.5874 4.399 11.544 2.39813 11.4125 2.32761C11.2721 2.24828 10.9652 2.16014 10.7284 2.12488C10.2987 2.05437 10.2987 2.05437 10.0969 2.37169Z" fill="#FFDD67"/>
<path d="M8.69388 6.60257C8.41324 7.06092 8.41324 8.10984 8.69388 8.55056C8.79912 8.71803 10.4304 10.384 12.3247 12.2438L15.7538 15.6285L16.5957 14.7824L17.4464 13.9274L13.8507 10.3046C11.8686 8.31257 10.1409 6.62902 10.0094 6.5585C9.86907 6.47917 9.56212 6.39103 9.32532 6.35577C8.89559 6.28525 8.89559 6.28525 8.69388 6.60257Z" fill="#FFDD67"/>
<path d="M15.1653 0.105696C14.9285 0.237912 14.5952 0.546417 14.5952 0.634561C14.5952 0.669819 14.7005 0.705076 14.8408 0.696262C15.0688 0.687448 15.0688 0.687448 14.8759 0.625747C14.6741 0.57286 14.6741 0.564046 14.832 0.431829C14.9197 0.3525 15.1126 0.220283 15.253 0.149768C15.4021 0.0704381 15.481 0.00873721 15.4284 0.00873721C15.3845 0.00873721 15.2617 0.0528093 15.1653 0.105696Z" fill="#ECC16B"/>
<path d="M16.9194 0.141256C17.0685 0.220586 19.4715 2.56522 22.2692 5.36821L27.3558 10.4453L22.313 5.35058C17.7789 0.767079 16.972 -0.00858879 16.7265 0.000225067C16.6914 0.00903988 16.7791 0.0707407 16.9194 0.141256Z" fill="#ECC16B"/>
<path d="M21.5675 6.78698C24.6985 9.93373 27.2856 12.5164 27.3119 12.5164C27.3382 12.5164 24.7862 9.93373 21.6552 6.78698C18.5243 3.63142 15.9372 1.05761 15.9108 1.05761C15.8845 1.05761 18.4366 3.63142 21.5675 6.78698Z" fill="#ECC16B"/>
<path d="M10.9558 1.51573C10.719 1.64795 10.3857 1.95645 10.3857 2.0446C10.3857 2.07985 10.491 2.11511 10.6313 2.1063C10.8593 2.09748 10.8593 2.09748 10.6664 2.03578C10.4647 1.98289 10.4647 1.97408 10.6225 1.84186C10.7102 1.76253 10.9032 1.63032 11.0435 1.5598C11.1926 1.48047 11.2715 1.41877 11.2189 1.41877C11.175 1.41877 11.0523 1.46284 10.9558 1.51573Z" fill="#ECC16B"/>
<path d="M12.7538 1.5864C12.9204 1.67454 15.148 3.8517 17.7089 6.42551L22.357 11.106L19.0419 14.429L15.7356 17.7609L12.6486 14.6758L9.55273 11.5908L12.6486 14.7199L15.7356 17.849L19.0858 14.4731L22.4447 11.106L17.7527 6.38144C13.5343 2.1417 12.7538 1.40129 12.517 1.41011C12.4819 1.41892 12.5872 1.48944 12.7538 1.5864Z" fill="#ECC16B"/>
<path d="M15.9544 6.7605L20.2517 11.106L19.3922 11.961L18.5415 12.8248L15.0511 9.34312L11.5693 5.86143L15.0511 9.3872L18.5415 12.913L19.4361 12.0051L20.3394 11.106L15.9982 6.7605L11.657 2.4238L15.9544 6.7605Z" fill="#ECC16B"/>
<path d="M28.3992 3.01441C27.9958 3.28765 27.3994 4.03688 27.3994 4.26605C27.3994 4.31894 27.5134 4.16028 27.6537 3.92229C27.9432 3.41106 28.0922 3.27002 28.6272 2.96152C28.8465 2.83812 28.978 2.73235 28.9254 2.73235C28.864 2.73235 28.6272 2.86456 28.3992 3.01441Z" fill="#ECC16B"/>
<path d="M9.55248 5.74656C9.31568 5.87878 8.98242 6.18729 8.98242 6.27543C8.98242 6.31069 9.08766 6.34595 9.22798 6.33713C9.45601 6.32832 9.45601 6.32832 9.26306 6.26662C9.06135 6.21373 9.06135 6.20491 9.21921 6.0727C9.30691 5.99337 9.49986 5.86115 9.64018 5.79064C9.78927 5.71131 9.8682 5.64961 9.81558 5.64961C9.77173 5.64961 9.64895 5.69368 9.55248 5.74656Z" fill="#ECC16B"/>
<path d="M13.8496 10.2861L17.4454 13.9264L16.5859 14.7814L15.7352 15.6453L13.3059 13.2213L10.8678 10.7973L13.2971 13.2654L15.7352 15.7334L16.6297 14.8255L17.5331 13.9264L13.8935 10.2861L10.2539 6.65455L13.8496 10.2861Z" fill="#ECC16B"/>
<path d="M9.5351 10.5507C9.66665 10.5686 9.87713 10.5686 10.0175 10.5507C10.149 10.5328 10.035 10.5148 9.77189 10.5148C9.50879 10.5148 9.39478 10.5328 9.5351 10.5507Z" fill="#ECC16B"/>
<path d="M8.4302 11.0006C8.22849 11.221 8.24603 11.2827 8.48282 11.2739C8.64068 11.265 8.64068 11.2562 8.5179 11.221C8.36004 11.1769 8.36004 11.1681 8.50913 11.0094C8.58806 10.9213 8.64068 10.8419 8.61437 10.8419C8.58806 10.8419 8.50913 10.9125 8.4302 11.0006Z" fill="#ECC16B"/>
<path d="M26.2595 14.2529L25.251 15.293L26.2858 14.2793C27.2418 13.3362 27.3558 13.2216 27.2856 13.2216C27.2769 13.2216 26.812 13.6887 26.2595 14.2529Z" fill="#ECC16B"/>
<path d="M27.6189 14.2795C27.0401 14.8613 26.5928 15.3373 26.6104 15.3373C26.6367 15.3373 27.1278 14.8613 27.7066 14.2795C28.2854 13.6978 28.7327 13.2218 28.7152 13.2218C28.6889 13.2218 28.1977 13.6978 27.6189 14.2795Z" fill="#ECC16B"/>
<path d="M24.5322 17.4527C24.5322 17.7701 24.5498 17.8935 24.5673 17.7348C24.5848 17.585 24.5848 17.3205 24.5673 17.1619C24.5498 17.012 24.5322 17.1354 24.5322 17.4527Z" fill="#ECC16B"/>
<path d="M27.9697 20.9518L29.3729 22.3886L29.0396 22.7147L28.7152 23.0497L26.9787 21.3309L25.251 19.612L26.9787 21.3749L28.7152 23.1378L29.0835 22.7588L29.4606 22.3886L28.0135 20.9518L26.5665 19.5239L27.9697 20.9518Z" fill="#ECC16B"/>
<path d="M15.201 0.176508C15.0344 0.264652 14.8415 0.396868 14.7888 0.467384C14.6924 0.573156 14.7362 0.608414 15.0081 0.661301C15.1835 0.696558 15.4554 0.784702 15.6045 0.855219C15.7448 0.925734 18.446 3.57006 21.5944 6.72562L27.3125 12.4726V12.8605C27.3125 13.2483 27.2862 13.2836 26.2162 14.3677C24.8043 15.8045 24.6376 16.1306 24.6376 17.4528C24.6376 18.8719 24.7692 19.0923 26.9617 21.287L28.7157 23.0499L29.0402 22.715L29.3647 22.3888L27.9615 20.9609C27.1897 20.1676 26.4706 19.3831 26.3741 19.2157C25.769 18.202 25.7777 16.7035 26.3741 15.6899C26.4706 15.5224 27.0406 14.8878 27.6282 14.2796L28.7069 13.1778L28.7332 8.77057C28.7596 4.61897 28.7683 4.34573 28.9262 4.01959C29.1454 3.58769 29.5839 3.13815 30.0137 2.91779C30.2855 2.77676 30.3119 2.73269 30.1803 2.6798C29.926 2.58284 29.1191 2.70625 28.742 2.90016C28.207 3.17341 27.9001 3.46429 27.6194 3.98434L27.3563 4.4515L27.33 7.43959L27.3037 10.4365L22.2434 5.35939C19.4633 2.56522 17.0603 0.220579 16.9024 0.141251C16.5078 -0.0526676 15.6045 -0.035038 15.201 0.176508Z" fill="#FFF7B6"/>
<path d="M10.9914 1.58665C10.8248 1.6748 10.6318 1.80701 10.5792 1.87753C10.4827 1.9833 10.5266 2.01856 10.7985 2.07144C10.9826 2.09789 11.2896 2.22129 11.4825 2.33588C11.6755 2.45046 13.7452 4.46896 16.0868 6.82241L20.3403 11.1062L19.437 12.0053L18.5424 12.9132L15.0519 9.41385C13.1401 7.49231 11.4474 5.86164 11.2896 5.78231C10.702 5.49144 9.53557 5.66773 9.17599 6.10845C9.07952 6.21422 9.12337 6.24948 9.39525 6.30236C9.57942 6.32881 9.88637 6.45221 10.0793 6.5668C10.2723 6.68138 12.0263 8.38257 13.982 10.3482L17.5339 13.9268L16.6305 14.8259L15.736 15.7338L13.3067 13.2922C11.9649 11.9524 10.7458 10.7977 10.588 10.7184C10.0004 10.4275 8.83396 10.6038 8.47439 11.0445C8.37792 11.1503 8.42177 11.1856 8.69364 11.2384C8.86904 11.2737 9.14091 11.3618 9.29001 11.4324C9.43033 11.5029 10.9475 12.9573 12.6489 14.6584L15.736 17.7611L19.0511 14.4293L22.3574 11.1062L17.7093 6.42577C15.1484 3.85196 12.912 1.6748 12.7366 1.57784C12.2981 1.34866 11.4299 1.35748 10.9914 1.58665Z" fill="#FFF7B6"/>
<path d="M0.844301 4.82148C0.791681 5.00658 0.72152 5.31508 0.68644 5.509C0.66013 5.70292 0.598739 5.89683 0.563659 5.94972C0.511039 6.02024 0.423338 6.45214 0.344407 7.00745C0.335637 7.05152 0.300557 7.1573 0.274247 7.22781C0.239167 7.29833 0.195316 7.55395 0.169006 7.80075C0.151466 8.03874 0.0988456 8.40013 0.0637653 8.59405C-0.0151653 9.03477 -0.0239353 12.8426 0.0549952 13.442C0.0900755 13.68 0.133926 14.0237 0.169006 14.1912C0.195316 14.3587 0.230397 14.6496 0.256707 14.8347C0.274247 15.0198 0.318097 15.2049 0.344407 15.2489C0.370718 15.293 0.423338 15.5222 0.449648 15.7514C0.475958 15.9893 0.528579 16.2097 0.563659 16.2626C0.598739 16.3067 0.65136 16.5006 0.68644 16.6857C0.73906 16.9677 0.774141 17.003 0.879381 16.9237C0.949542 16.862 1.00216 16.8355 1.00216 16.8708C1.00216 16.8972 1.13371 16.8708 1.30034 16.8003C1.46698 16.7298 1.61607 16.6945 1.64238 16.7121C1.65992 16.7386 1.7827 16.7033 1.91425 16.6504C2.08088 16.5711 2.1335 16.5006 2.08965 16.3772C2.06334 16.289 2.02826 16.1127 2.00195 15.9893C1.97564 15.8571 1.92302 15.6808 1.87917 15.6015C1.83532 15.5134 1.77393 15.293 1.74762 15.1079C1.44944 12.9924 1.4319 12.7545 1.42313 11.1502C1.41436 9.45786 1.51083 8.29436 1.75639 7.13967C1.7827 7.01627 1.81778 6.82235 1.84409 6.70776C1.8704 6.58436 1.90548 6.45214 1.93179 6.41689C1.9581 6.37281 2.00195 6.20534 2.02826 6.05549C2.0458 5.89683 2.12473 5.64122 2.19489 5.48256C2.3966 5.05065 2.30013 4.90962 1.68623 4.72452C1.37928 4.63637 1.08986 4.54823 1.03724 4.52178C0.984622 4.50416 0.896921 4.63637 0.844301 4.82148Z" fill="#CCE5FF"/>
<path d="M40.7481 4.64601C40.5902 4.70771 40.3183 4.78704 40.1342 4.81348C39.9588 4.83992 39.7833 4.91044 39.7483 4.96333C39.6781 5.07791 39.7483 5.45693 39.8623 5.60678C39.9061 5.65967 39.9237 5.72137 39.8974 5.74781C39.871 5.77425 39.9061 5.95936 39.9763 6.15327C40.0552 6.356 40.0903 6.52348 40.0728 6.52348C40.0465 6.52348 40.0728 6.62925 40.1254 6.76147C40.178 6.9025 40.2394 7.10523 40.2482 7.22863C40.2657 7.35203 40.3008 7.54595 40.3271 7.66935C40.3622 7.79276 40.3973 8.08363 40.4236 8.33043C40.4499 8.56842 40.4937 8.96507 40.5288 9.21188C40.599 9.78481 40.5902 12.5173 40.52 13.0902C40.4937 13.3282 40.4236 13.8042 40.3622 14.148C40.3096 14.4829 40.2569 14.8619 40.2394 14.9853C40.2306 15.1087 40.2131 15.2057 40.2043 15.2057C40.1868 15.2057 40.1429 15.382 40.0728 15.7345C40.0465 15.8756 39.9938 16.0783 39.9675 16.1753C39.8535 16.5278 39.8798 16.5631 40.3622 16.7041C40.6428 16.7835 40.9498 16.8804 41.0462 16.9157C41.2129 16.995 41.2479 16.9509 41.3795 16.5014C41.4497 16.2282 41.5374 15.8756 41.5549 15.7345C41.5724 15.5847 41.6338 15.3115 41.6777 15.1175C41.7917 14.7121 41.8443 14.3419 41.9496 13.3547C42.0285 12.579 42.0109 9.34409 41.9232 8.50672C41.8619 7.91616 41.5812 6.51466 41.3795 5.8007C41.3093 5.54508 41.2304 5.21894 41.2041 5.07791C41.0989 4.54023 41.0638 4.51379 40.7481 4.64601Z" fill="#CCE5FF"/>
<path d="M38.1605 6.03835C38.0377 6.10005 37.9237 6.1353 37.8973 6.11767C37.836 6.04716 37.2396 6.33804 37.1957 6.45262C37.1782 6.51432 37.2308 6.77876 37.3185 7.03438C37.4062 7.28999 37.5027 7.6602 37.529 7.87175C37.5553 8.07448 37.5904 8.38298 37.6167 8.55046C37.6342 8.71793 37.6781 9.03525 37.7132 9.25561C37.8535 10.1988 37.8096 12.2878 37.6167 13.6628C37.5816 13.9449 37.4238 14.7382 37.4062 14.7823C37.3536 14.8968 37.2308 15.4433 37.1957 15.7254C37.1782 15.8576 37.2747 15.9193 37.6167 16.0163C37.8623 16.0868 38.1692 16.1485 38.3095 16.1573C38.5639 16.1749 38.5726 16.1661 38.7656 15.3376C38.8708 14.8792 38.9848 14.3239 39.0111 14.1035C39.0462 13.8832 39.0988 13.5042 39.1339 13.2662C39.2479 12.4288 39.1865 9.04406 39.0375 8.28602C39.0111 8.16262 38.9673 7.89819 38.941 7.68664C38.9147 7.4751 38.8708 7.28118 38.8533 7.24592C38.8357 7.21066 38.7919 7.00793 38.7568 6.79639C38.6954 6.35566 38.5814 6.02953 38.4674 5.95902C38.4323 5.93257 38.292 5.96783 38.1605 6.03835Z" fill="#CCE5FF"/>
<path d="M3.41371 6.08243C3.3874 6.12651 3.33478 6.32924 3.29093 6.54078C3.24708 6.75233 3.18569 7.01676 3.15938 7.14017C3.1243 7.26357 3.08921 7.47511 3.0629 7.62496C3.03659 7.76599 2.99274 7.99516 2.96643 8.11857C2.86119 8.65625 2.81734 9.40547 2.80857 11.1067C2.7998 13.178 2.91381 14.4032 3.20323 15.1613C3.24708 15.2847 3.2997 15.505 3.30847 15.6461C3.32601 15.7959 3.3874 15.9987 3.44002 16.0956C3.54526 16.2983 3.48387 16.3072 4.50997 15.981C4.58013 15.9634 4.65906 15.9458 4.6766 15.9546C4.75553 15.9898 4.86954 15.6813 4.80815 15.5932C4.68537 15.3816 4.44857 14.3063 4.36964 13.6188C4.34333 13.3279 4.29071 12.9312 4.25563 12.7373C4.18547 12.3142 4.20301 9.82856 4.28194 9.21155C4.31702 8.96475 4.38718 8.5681 4.43103 8.31248C4.48366 8.06568 4.52751 7.76599 4.54505 7.6514C4.55382 7.54563 4.61521 7.27238 4.6766 7.05202C4.86077 6.40857 4.86077 6.37331 4.62398 6.26754C4.5012 6.20584 4.37841 6.18821 4.3521 6.20584C4.33456 6.23228 4.22932 6.20584 4.12408 6.15295C3.87852 6.02073 3.4751 5.97666 3.41371 6.08243Z" fill="#CCE5FF"/>
</svg>
