<svg width="22" height="22" viewBox="0 0 22 22" fill="none" xmlns="http://www.w3.org/2000/svg">
<g clip-path="url(#clip0_1508_9493)">
<path d="M11.25 21.5C17.049 21.5 21.75 16.799 21.75 11C21.75 5.20101 17.049 0.5 11.25 0.5C5.45101 0.5 0.75 5.20101 0.75 11C0.75 16.799 5.45101 21.5 11.25 21.5Z" fill="#FFDD67"/>
<path d="M15.4263 16.6674C15.2583 16.6674 15.0903 16.6031 14.9617 16.4757C12.9772 14.4912 9.52007 14.4912 7.53688 16.4757C7.28094 16.7317 6.86488 16.7317 6.60895 16.4757C6.35301 16.2198 6.35301 15.8038 6.60895 15.5478C7.84926 14.3088 9.49644 13.625 11.2499 13.625C13.0034 13.625 14.6506 14.3088 15.8896 15.5478C16.1456 15.8038 16.1456 16.2198 15.8896 16.4757C15.7623 16.6044 15.5943 16.6674 15.4263 16.6674Z" fill="#B26D3C"/>
<path d="M7.3125 9.6875C8.03737 9.6875 8.625 9.09987 8.625 8.375C8.625 7.65013 8.03737 7.0625 7.3125 7.0625C6.58763 7.0625 6 7.65013 6 8.375C6 9.09987 6.58763 9.6875 7.3125 9.6875Z" fill="#B26D3C"/>
<path d="M15.1875 9.6875C15.9124 9.6875 16.5 9.09987 16.5 8.375C16.5 7.65013 15.9124 7.0625 15.1875 7.0625C14.4626 7.0625 13.875 7.65013 13.875 8.375C13.875 9.09987 14.4626 9.6875 15.1875 9.6875Z" fill="#B26D3C"/>
</g>
<defs>
<clipPath id="clip0_1508_9493">
<rect width="21" height="21" fill="white" transform="translate(0.75 0.5)"/>
</clipPath>
</defs>
</svg>
