<svg width="30" height="30" viewBox="0 0 30 30" fill="none" xmlns="http://www.w3.org/2000/svg">
<path d="M13.5023 0.0176678C9.56147 0.440365 5.9906 2.32489 3.4769 5.31899C1.70908 7.42074 0.610807 9.80428 0.123336 12.5988C0.0117463 13.2387 0 13.5499 0 15.0058C0 16.4618 0.0117463 16.7729 0.123336 17.4128C0.675411 20.5831 2.00274 23.2073 4.19342 25.4793C6.44283 27.8159 9.27956 29.2953 12.592 29.8765C13.2322 29.9881 13.5435 29.9998 15 29.9998C16.8383 29.9998 17.3904 29.9411 18.8352 29.5712C24.0094 28.2327 28.2322 24.0116 29.5713 18.8394C29.9413 17.3952 30 16.8434 30 15.0058C30 13.5499 29.9883 13.2387 29.8767 12.5988C29.2952 9.28765 27.8093 6.45206 25.4777 4.20354C23.2106 2.01961 20.5619 0.681067 17.4432 0.146826C16.8735 0.0470219 16.433 0.0176678 15.2349 0.00592613C14.4127 -0.00581551 13.6316 5.53131e-05 13.5023 0.0176678ZM16.8207 2.47166C19.675 2.92958 21.9244 4.07439 23.9272 6.0822C25.6774 7.82582 26.8285 9.88647 27.3571 12.1878C27.7682 14.0019 27.7682 16.0097 27.3571 17.8238C26.6464 20.9471 24.6966 23.7298 21.8892 25.6202C20.8085 26.3482 19.1699 27.0468 17.8191 27.358C16.0043 27.7689 13.9957 27.7689 12.1809 27.358C9.05638 26.6476 6.27251 24.6985 4.38136 21.8922C3.65309 20.812 2.95419 19.1741 2.64291 17.8238C2.23179 16.0097 2.23179 14.0019 2.64291 12.1878C3.1715 9.88647 4.32263 7.82582 6.07283 6.0822C8.287 3.86304 10.8183 2.68888 14.0897 2.36012C14.5536 2.31315 16.2745 2.3836 16.8207 2.47166Z" fill="white"/>
<path d="M14.4716 8.03095C14.3306 8.10727 14.1309 8.26578 14.0369 8.38907L13.8549 8.61803L13.8373 11.166L13.8196 13.7139H11.3705C8.93906 13.7139 8.91556 13.7139 8.65714 13.843C8.51619 13.9194 8.32238 14.0779 8.22253 14.2012C8.06983 14.389 8.04047 14.4888 8.02285 14.8176C7.99348 15.3342 8.15793 15.663 8.56905 15.9154L8.85096 16.0916L11.3412 16.1092L13.8255 16.1268V18.5808V21.0348L13.9606 21.2931C14.3893 22.0974 15.6109 22.0974 16.0397 21.2931L16.1748 21.0348V18.5808V16.1268L18.6591 16.1092L21.1493 16.0916L21.4312 15.9154C21.8423 15.663 22.0068 15.3342 21.9774 14.8176C21.9598 14.4888 21.9304 14.389 21.7777 14.2012C21.6779 14.0779 21.4841 13.9194 21.3431 13.843C21.0847 13.7139 21.0612 13.7139 18.6297 13.7139H16.1806L16.163 11.166L16.1454 8.61803L15.9633 8.38907C15.7343 8.09553 15.3467 7.90179 15.0001 7.90179C14.8357 7.90179 14.6301 7.95463 14.4716 8.03095Z" fill="white"/>
</svg>
