<svg width="25" height="25" viewBox="0 0 25 25" fill="none" xmlns="http://www.w3.org/2000/svg">
<path d="M15.6067 0.0817499C13.9286 0.389804 12.5979 1.05481 11.4237 2.17456C10.4697 3.07916 9.78967 4.11579 9.37871 5.27955L9.22705 5.70496L9.55484 5.73429C11.1302 5.8761 12.2995 6.19882 13.5764 6.83449C16.5852 8.34542 18.6987 11.2744 19.1732 14.5847C19.2173 14.883 19.2613 15.2693 19.2809 15.4502L19.3053 15.7778L19.731 15.6262C21.9032 14.8683 23.728 13.0542 24.55 10.8441C24.6429 10.5898 24.7848 10.1155 24.8582 9.79278C24.9903 9.23535 24.9952 9.14245 25.0001 8.05692C25.0001 7.04475 24.9854 6.84916 24.8875 6.40908C24.6967 5.52893 24.3787 4.71234 23.9335 3.92509L23.7672 3.6317L23.9091 2.31636C23.9873 1.59268 24.0411 0.996132 24.0314 0.986353C24.0216 0.971684 23.4198 1.02547 22.6957 1.10371L21.3797 1.24551L21.0862 1.07926C20.3083 0.634291 19.4864 0.316458 18.6302 0.130648C17.9355 -0.0209351 16.3014 -0.0453835 15.6067 0.0817499Z" fill="#C2CFE0"/>
<path d="M7.95499 7.18177C5.69961 7.42137 3.53229 8.56068 2.09883 10.2721C1.091 11.4701 0.420744 12.8588 0.112525 14.3746C0.0146771 14.8636 0 15.064 0 16.1251C0.00489237 17.1862 0.0146771 17.3818 0.112525 17.8365C0.332681 18.8389 0.768102 19.9538 1.27691 20.8046C1.36497 20.9562 1.36497 20.9757 1.21331 22.4378C1.12525 23.2544 1.06164 23.9291 1.06654 23.934C1.07632 23.9389 1.75147 23.8705 2.57828 23.7873L4.07534 23.626L4.23679 23.7433C4.5548 23.9585 5.48435 24.3888 6.06654 24.5795C7.15264 24.9413 7.51957 24.9951 8.87965 25C9.95597 25 10.137 24.9902 10.6409 24.8826C14.5793 24.0709 17.4266 20.9317 17.8278 16.9613C18.0382 14.932 17.5147 12.8343 16.3845 11.1376C14.5303 8.35042 11.2965 6.8346 7.95499 7.18177ZM10.044 10.4335C12.2994 10.898 14.0705 12.6534 14.5548 14.9027C14.8288 16.1593 14.6673 17.416 14.09 18.5993C13.3366 20.1445 11.9912 21.2447 10.3131 21.6848C9.67711 21.851 8.62525 21.895 7.97456 21.7777C5.54306 21.3571 3.64482 19.4648 3.21918 17.0297C3.10665 16.3843 3.15558 15.333 3.32192 14.6924C3.74266 13.0788 4.8092 11.7292 6.27202 10.9762C6.80529 10.7024 7.44619 10.4823 7.9501 10.409C8.15069 10.3797 8.37084 10.3454 8.43934 10.3357C8.66928 10.2965 9.66732 10.3552 10.044 10.4335Z" fill="#C2CFE0"/>
<path d="M8.21903 11.7927C6.98616 11.9981 5.94408 12.6777 5.25915 13.7192C4.80416 14.4136 4.57422 15.2057 4.57422 16.1005C4.57422 17.2399 4.95582 18.2227 5.71903 19.0442C6.28655 19.6554 7.0204 20.0955 7.82764 20.3106C8.35602 20.4524 9.54976 20.4426 10.0781 20.2911C12.72 19.5283 14.0312 16.5895 12.813 14.1495C12.5586 13.6459 12.3775 13.4014 11.9372 12.9711C11.3599 12.4088 10.675 12.0274 9.89712 11.8465C9.43234 11.7389 8.67892 11.7144 8.21903 11.7927ZM8.0478 14.1446V14.8537H7.33841H6.62901V14.1446V13.4356H7.33841H8.0478V14.1446ZM11.1789 14.1446V14.8537H10.4695H9.76013V14.1446V13.4356H10.4695H11.1789V14.1446ZM8.09672 16.7118C8.19946 17.0981 8.66913 17.4012 9.04095 17.3181C9.40299 17.2447 9.68185 16.9856 9.74056 16.6873L9.76992 16.5162H10.4793H11.1936L11.1593 16.7656C11.0517 17.5626 10.45 18.3254 9.7161 18.5894C8.86972 18.8926 8.00866 18.7166 7.36776 18.1053C6.9568 17.7142 6.766 17.323 6.65837 16.6726L6.63391 16.5162H7.33841H8.04291L8.09672 16.7118Z" fill="#C2CFE0"/>
</svg>
