<svg width="12" height="16" viewBox="0 0 12 16" fill="none" xmlns="http://www.w3.org/2000/svg">
<path d="M11.3337 5.33333C11.3342 4.32118 11.0467 3.32978 10.5047 2.47494C9.9628 1.6201 9.1888 0.937125 8.27316 0.505791C7.35752 0.0744574 6.33804 -0.087421 5.33382 0.0390665C4.32961 0.165554 3.38212 0.575185 2.60204 1.22011C1.82196 1.86503 1.2415 2.71861 0.928467 3.68114C0.615437 4.64367 0.582762 5.6754 0.834258 6.6558C1.08575 7.63621 1.61104 8.52481 2.34875 9.2178C3.08645 9.91079 4.00613 10.3796 5.00033 10.5693V12H4.00033C3.73511 12 3.48075 12.1054 3.29322 12.2929C3.10568 12.4804 3.00033 12.7348 3.00033 13C3.00033 13.2652 3.10568 13.5196 3.29322 13.7071C3.48075 13.8946 3.73511 14 4.00033 14H5.00033V15C5.00033 15.2652 5.10568 15.5196 5.29322 15.7071C5.48075 15.8946 5.73511 16 6.00033 16C6.26554 16 6.5199 15.8946 6.70743 15.7071C6.89497 15.5196 7.00033 15.2652 7.00033 15V14H8.00033C8.26554 14 8.5199 13.8946 8.70743 13.7071C8.89497 13.5196 9.00033 13.2652 9.00033 13C9.00033 12.7348 8.89497 12.4804 8.70743 12.2929C8.5199 12.1054 8.26554 12 8.00033 12H7.00033V10.5693C8.21825 10.3355 9.31684 9.68514 10.1075 8.72973C10.8982 7.77432 11.3317 6.5735 11.3337 5.33333ZM2.66699 5.33333C2.66699 4.67406 2.86249 4.0296 3.22876 3.48143C3.59503 2.93327 4.11563 2.50603 4.72471 2.25374C5.3338 2.00144 6.00402 1.93543 6.65063 2.06405C7.29723 2.19267 7.89117 2.51014 8.35735 2.97631C8.82352 3.44249 9.14099 4.03643 9.26961 4.68303C9.39823 5.32964 9.33222 5.99986 9.07992 6.60895C8.82763 7.21803 8.40039 7.73863 7.85223 8.1049C7.30406 8.47117 6.6596 8.66667 6.00033 8.66667C5.1166 8.66561 4.26936 8.31408 3.64447 7.68919C3.01958 7.0643 2.66805 6.21706 2.66699 5.33333Z" fill="#90A0B7"/>
</svg>
