<svg width="14" height="14" viewBox="0 0 14 14" fill="none" xmlns="http://www.w3.org/2000/svg">
<path d="M2.35288 0.0196981C2.14197 0.0553055 1.77493 0.175826 1.57498 0.277172C0.854595 0.641471 0.325951 1.27968 0.0766945 2.08497L0 2.33149V7.00163V11.6718L0.0766945 11.9183C0.383472 12.9126 1.08742 13.6165 2.08171 13.9233L2.32822 14H6.99837H11.6685L11.915 13.9233C12.9093 13.6165 13.6133 12.9126 13.92 11.9183L13.9967 11.6718V7.00163V2.33149L13.92 2.08497C13.6133 1.09068 12.9093 0.386735 11.915 0.079958L11.6685 0.00326347L7.08054 0.000524521C4.55784 -0.00221539 2.42957 0.00600243 2.35288 0.0196981ZM4.52223 3.27921C4.68932 3.35865 4.79066 3.48464 5.09196 3.98316C5.40696 4.50632 5.43709 4.5748 5.43709 4.7501C5.43709 4.93362 5.396 5.04318 5.26179 5.22122C5.08649 5.45405 5.05909 5.50335 5.02349 5.67865C4.97966 5.88956 5.02075 6.11143 5.13579 6.28673C5.17961 6.35521 5.76852 6.96328 6.44233 7.63436C7.34349 8.53004 7.70231 8.87243 7.7927 8.91351C7.96253 8.99295 8.16796 9.01486 8.346 8.97377C8.50487 8.93543 8.55691 8.90804 8.77878 8.73821C8.86095 8.67521 8.97051 8.61222 9.02255 8.59304C9.15129 8.55196 9.36494 8.55469 9.47998 8.604C9.64159 8.66974 10.4524 9.16825 10.5619 9.26686C10.7235 9.41203 10.7865 9.56816 10.7728 9.79276C10.7646 9.95437 10.7454 10.0091 10.6331 10.2091C10.4797 10.4775 10.3894 10.5652 10.1593 10.6747C9.51559 10.9843 8.36517 10.6912 7.14902 9.9078C5.61513 8.92173 4.15246 7.26732 3.53616 5.82108C3.28143 5.22122 3.16365 4.64328 3.21569 4.24063C3.24582 3.99959 3.32799 3.78047 3.45125 3.6216C3.51973 3.53121 3.79911 3.34495 3.99359 3.26278C4.1278 3.20252 4.38528 3.21073 4.52223 3.27921Z" fill="#C2CFE0"/>
</svg>
