<svg width="13" height="14" viewBox="0 0 13 14" fill="none" xmlns="http://www.w3.org/2000/svg">
<path d="M5.40711 0.0457859C4.87845 0.144362 4.49497 0.273061 4.08136 0.489383C2.84052 1.13835 2.01877 2.22544 1.71746 3.60826C1.66268 3.86291 1.65446 3.96971 1.6572 4.52557C1.6572 5.07048 1.66542 5.19097 1.71746 5.42646C1.80237 5.80434 1.9229 6.14388 2.09546 6.49712C2.28447 6.88047 5.81525 12.3844 5.92207 12.4638C6.03438 12.5459 6.2809 12.5432 6.39869 12.4583C6.45347 12.42 6.82052 11.8723 7.46422 10.8701C8.00384 10.0322 8.81737 8.76439 9.27207 8.05518C9.72677 7.34597 10.1486 6.66963 10.2089 6.54914C10.365 6.23424 10.4992 5.8591 10.5869 5.48396C10.6581 5.17454 10.6636 5.11703 10.6636 4.52557C10.6663 3.96971 10.6581 3.86291 10.6033 3.60826C10.2089 1.80375 8.87215 0.462 7.078 0.0731678C6.68082 -0.0117178 5.79607 -0.0254087 5.40711 0.0457859ZM6.78217 2.57593C7.42313 2.79773 7.89701 3.27966 8.11066 3.92042C8.16545 4.08745 8.17366 4.1696 8.17366 4.51188C8.17366 4.85416 8.16545 4.93631 8.11066 5.10334C7.89427 5.75231 7.40122 6.2452 6.75204 6.46152C6.58495 6.51628 6.50278 6.5245 6.16038 6.5245C5.81799 6.5245 5.73581 6.51628 5.56872 6.46152C4.91954 6.2452 4.42649 5.75231 4.2101 5.10334C4.15531 4.93631 4.1471 4.85416 4.1471 4.51188C4.1471 4.1696 4.15531 4.08745 4.2101 3.92042C4.42375 3.27419 4.93324 2.76213 5.55503 2.57319C5.81799 2.49105 5.83716 2.48831 6.22886 2.49926C6.52469 2.50474 6.61782 2.51843 6.78217 2.57593Z" fill="#C2CFE0"/>
<path d="M2.50363 9.53664C1.97771 9.68999 1.69558 9.79404 1.35318 9.96107C0.736872 10.2595 0.312302 10.6237 0.117821 11.0153C0.0219503 11.2097 0.0109936 11.2508 0.00277616 11.4918C-0.00544133 11.7081 0.00277616 11.7848 0.0520811 11.9299C0.347911 12.8061 1.68736 13.4962 3.73625 13.833C4.60457 13.9754 4.96888 14 6.16041 14C7.35195 14 7.71626 13.9754 8.58457 13.833C10.3595 13.5427 11.6387 12.9704 12.1154 12.2503C12.2742 12.012 12.3317 11.7984 12.3181 11.4918C12.3098 11.2508 12.2989 11.2097 12.203 11.0153C11.9565 10.5142 11.31 10.0487 10.4198 9.72832C10.1158 9.61879 9.38989 9.41068 9.36523 9.42711C9.35702 9.43259 8.87492 10.1801 8.29422 11.0865C7.17116 12.8472 7.07803 12.9732 6.7822 13.1183C6.36311 13.3237 5.95772 13.3237 5.53862 13.1183C5.27019 12.9868 5.11679 12.8006 4.58266 11.96C3.4459 10.1774 2.95011 9.41342 2.93368 9.41616C2.92272 9.41616 2.73098 9.47092 2.50363 9.53664Z" fill="#C2CFE0"/>
</svg>
