<svg width="16" height="16" viewBox="0 0 16 16" fill="none" xmlns="http://www.w3.org/2000/svg">
<g clip-path="url(#clip0_1501_10514)">
<path d="M13.6706 0H11.0085C10.4571 0 10.0101 0.446969 10.0101 0.998312C10.0101 1.54966 10.4571 1.99662 11.0085 1.99662H12.5918L8.91202 5.67637C6.34237 3.88634 2.80815 4.51834 1.01812 7.08797C-0.771915 9.65759 -0.139915 13.1918 2.42971 14.9819C4.99933 16.7719 8.53358 16.1399 10.3236 13.5703C11.6805 11.6225 11.6805 9.03575 10.3236 7.08797L14.0034 3.40822V4.99153C14.0034 5.54287 14.4503 5.98984 15.0017 5.98984C15.553 5.98984 16 5.54287 16 4.99153V2.32937C16 1.04291 14.9571 0 13.6706 0ZM5.68415 13.9763C3.66252 13.9763 2.02368 12.3374 2.02368 10.3158C2.02368 8.29419 3.66252 6.65534 5.68415 6.65534C7.70577 6.65534 9.34462 8.29419 9.34462 10.3158C9.34243 12.3365 7.70487 13.9741 5.68415 13.9763Z" fill="#90A0B7"/>
</g>
<defs>
<clipPath id="clip0_1501_10514">
<rect width="16" height="16" fill="white"/>
</clipPath>
</defs>
</svg>
