<svg width="20" height="25" viewBox="0 0 20 25" fill="none" xmlns="http://www.w3.org/2000/svg">
<path d="M1.88706 0.0885239C1.44042 0.239265 1.11102 0.445837 0.781624 0.780819C0.457808 1.11022 0.139576 1.71877 0.0558303 2.15983C0.0223321 2.34965 0 6.02328 0 12.4326C0 20.7736 0.0167491 22.4653 0.0781624 22.7724C0.290318 23.7717 1.03844 24.5924 1.99872 24.8883C2.35046 25 2.5347 25 10.6245 25H18.8874L19.1275 24.8604C19.3731 24.7153 19.5964 24.358 19.5964 24.1179C19.5964 24.0509 19.4959 23.7606 19.3731 23.4703C18.9544 22.4932 18.9488 21.7172 19.3452 20.7848L19.5406 20.3326V10.5567C19.5406 3.76216 19.5239 0.730572 19.4792 0.618912C19.401 0.406755 19.2112 0.211349 19.0046 0.122023C18.8651 0.0661907 17.2236 0.0438595 10.5184 0.0159435C2.44537 -0.0119705 2.19413 -0.0119705 1.88706 0.0885239ZM13.617 5.40915C14.5103 5.59897 14.5103 6.88307 13.617 7.07289C13.2429 7.15664 6.26974 7.15664 5.91801 7.07289C5.00798 6.86632 5.04706 5.58222 5.96826 5.39798C6.30882 5.33099 13.3044 5.34215 13.617 5.40915ZM13.8459 9.15536C14.1697 9.32844 14.3093 9.57967 14.2758 9.97049C14.2535 10.3111 14.1195 10.5232 13.8403 10.6628C13.6673 10.7577 13.3546 10.7633 9.78147 10.7633C5.58861 10.7633 5.67236 10.7689 5.4267 10.4562C5.09172 10.0319 5.27038 9.32844 5.77843 9.1107C5.91243 9.04929 6.71638 9.03812 9.7703 9.03254H13.6003L13.8459 9.15536ZM13.8459 12.7285C14.1697 12.9016 14.3093 13.1528 14.2758 13.5436C14.2535 13.8842 14.1195 14.0963 13.8403 14.2359C13.6673 14.3308 13.3546 14.3364 9.78147 14.3364C5.58861 14.3364 5.67236 14.342 5.4267 14.0293C5.09172 13.605 5.27038 12.9016 5.77843 12.6838C5.91243 12.6224 6.71638 12.6113 9.7703 12.6057H13.6003L13.8459 12.7285ZM17.2683 21.3822C17.2125 21.7618 17.2125 22.5435 17.2683 22.9231L17.313 23.2134L9.98246 23.2023C2.16622 23.1855 2.49003 23.1967 2.18296 22.9175C2.01547 22.7612 1.84798 22.3983 1.8424 22.1862C1.8424 21.7507 2.13272 21.3096 2.52353 21.17C2.6631 21.1142 4.48317 21.0975 10.0104 21.0975L17.313 21.0919L17.2683 21.3822Z" fill="#C2CFE0"/>
</svg>
