<svg width="18" height="25" viewBox="0 0 18 25" fill="none" xmlns="http://www.w3.org/2000/svg">
<path d="M2.18538 0.112305C1.68721 0.268555 1.32063 0.498047 0.911749 0.922852C0.498172 1.35254 0.263185 1.7627 0.108094 2.31934L0 2.70996V12.5V22.29L0.108094 22.6807C0.408877 23.7695 1.21253 24.6094 2.23238 24.8975C2.58016 25 2.66005 25 9.75666 25H16.9285L17.2151 24.8486C17.5441 24.6777 17.7039 24.502 17.8778 24.1211L18 23.8525V12.5V1.14746L17.8778 0.878906C17.7039 0.498047 17.5441 0.322266 17.2151 0.151367L16.9285 0H15.7112H14.4987V3.66211C14.4987 7.64648 14.5034 7.59766 14.2402 7.72461C14.1368 7.77344 14.0898 7.76855 13.9535 7.69043C13.7749 7.59277 13.7373 7.53418 12.8632 6.08398C12.5577 5.57617 12.2898 5.15137 12.2616 5.1416C12.2381 5.13672 11.9044 5.6543 11.5191 6.29395C11.1337 6.93848 10.7671 7.51953 10.6966 7.58789C10.6261 7.65625 10.5086 7.72461 10.4287 7.74414C10.3065 7.76855 10.2642 7.74902 10.1608 7.61719L10.0339 7.46094V3.73047V0L6.28825 0.00488281C2.55196 0.00488281 2.53786 0.00488281 2.18538 0.112305ZM16.7264 20C16.7875 20.0586 16.8016 20.1953 16.8016 20.6592V21.2402H10.1984C3.05483 21.2402 3.36971 21.2305 3.20052 21.4941C3.07833 21.6895 3.05953 21.9092 3.14413 22.1143C3.30862 22.4902 2.70705 22.4609 10.1467 22.4609H16.8016V23.0615C16.8016 23.4619 16.7828 23.6816 16.7452 23.7207C16.7029 23.7646 15.0862 23.7793 9.75196 23.7793C2.07258 23.7793 2.57076 23.7988 2.06788 23.4668C1.63081 23.1738 1.34882 22.7344 1.24543 22.1826C1.05744 21.2012 1.7436 20.1709 2.71175 19.9756C2.82454 19.9512 6.00627 19.9316 9.78486 19.9268C15.9697 19.9219 16.6606 19.9316 16.7264 20Z" fill="#B8B8B8"/>
</svg>
