<svg width="22" height="25" viewBox="0 0 22 25" fill="none" xmlns="http://www.w3.org/2000/svg">
<path d="M2.72589 0.0688591C1.54939 0.3419 0.501461 1.34305 0.12858 2.55872C0.00642899 2.96828 0 3.14381 0 12.5052C0 21.8665 0.00642899 22.0421 0.12858 22.4516C0.308591 23.0367 0.681473 23.6413 1.10579 24.0379C1.49153 24.4019 2.17943 24.7985 2.63589 24.922C3.03448 25.026 18.9655 25.026 19.3641 24.922C20.5149 24.6034 21.505 23.6283 21.8714 22.4516C21.9936 22.0421 22 21.8665 22 12.5052C22 3.16331 21.9936 2.96828 21.8714 2.55872C21.5307 1.44056 20.6821 0.549931 19.602 0.172874L19.152 0.0168533L11.1157 0.00385094C4.90532 -0.00915146 3.00234 0.0103512 2.72589 0.0688591ZM6.04325 6.12124C6.30684 6.31627 6.44828 6.55681 6.48042 6.86885C6.564 7.60346 5.73466 8.19505 5.09176 7.857C4.81531 7.71398 4.5903 7.40843 4.53887 7.10939C4.40386 6.30327 5.40678 5.64668 6.04325 6.12124ZM16.9147 6.08224C17.1268 6.19275 17.2425 6.30977 17.3518 6.5243C17.6026 7.01187 17.4676 7.47344 16.979 7.80499L16.7668 7.95451H13.0573H9.34775L9.13559 7.80499C8.64699 7.47344 8.51198 7.01187 8.76271 6.5243C8.872 6.30977 8.98773 6.19275 9.19988 6.08224L9.48276 5.93922H13.0573H16.6318L16.9147 6.08224ZM16.6897 11.5365C17.0047 11.621 17.339 11.9331 17.4354 12.2256C17.6026 12.7522 17.2297 13.3503 16.6511 13.4738C16.2139 13.5713 9.90064 13.5713 9.46347 13.4738C8.88486 13.3503 8.51198 12.7522 8.67914 12.2256C8.77557 11.9461 9.10345 11.621 9.39275 11.543C9.7142 11.452 16.3553 11.4455 16.6897 11.5365ZM6.05611 11.6861C6.64115 12.0891 6.63472 12.9277 6.04325 13.3373C5.86324 13.4673 5.76037 13.4868 5.45178 13.4673C5.13676 13.4413 5.05319 13.4088 4.86032 13.2203C4.44243 12.8107 4.41029 12.3036 4.77674 11.8811C5.02104 11.6015 5.15605 11.5365 5.53536 11.5365C5.74109 11.53 5.89538 11.5755 6.05611 11.6861ZM5.99182 17.2054C6.609 17.6214 6.66686 18.3625 6.1204 18.8306C5.84395 19.0646 5.53536 19.1101 5.18177 18.9736C4.86032 18.8566 4.6803 18.6551 4.57101 18.317C4.30099 17.4979 5.29106 16.7243 5.99182 17.2054ZM16.9147 17.1534C17.1783 17.2899 17.4354 17.6604 17.474 17.9465C17.519 18.3235 17.2811 18.7396 16.9147 18.9216L16.6318 19.0711H13.0573H9.48276L9.19988 18.9216C8.98773 18.8176 8.872 18.7006 8.76271 18.486C8.51198 17.9985 8.64699 17.5369 9.13559 17.1989L9.34775 17.0558H13.038C16.1882 17.0558 16.7539 17.0688 16.9147 17.1534Z" fill="#B8B8B8"/>
</svg>
