<svg width="25" height="25" viewBox="0 0 25 25" fill="none" xmlns="http://www.w3.org/2000/svg">
<path d="M11.4128 0.0297432C8.41642 0.323664 5.71968 1.58099 3.64946 3.64932C1.73723 5.55981 0.522333 7.98738 0.102841 10.7252C-0.0333583 11.6178 -0.0333583 13.3596 0.0973926 14.2359C0.729356 18.3454 3.17004 21.7744 6.78748 23.6251C12.9273 26.7711 20.5054 24.3326 23.6435 18.2039C24.5696 16.3968 25 14.5897 25 12.4942C25 10.8722 24.7657 9.52774 24.2318 8.11257C22.6138 3.8235 18.8329 0.780874 14.3002 0.111387C13.6083 0.0134144 12.0502 -0.0355721 11.4128 0.0297432ZM14.1204 1.90757C18.7349 2.60972 22.3904 6.28373 23.1096 10.932C23.224 11.6777 23.2349 13.1745 23.1314 13.9093C22.9679 15.0796 22.4939 16.5437 21.9491 17.5453C21.704 17.9916 21.072 18.9713 21.023 18.9713C21.0121 18.9713 20.7615 18.7699 20.4727 18.525C18.7675 17.0935 16.5829 16.1301 14.273 15.7817C13.3741 15.6457 11.6307 15.6457 10.7318 15.7817C8.32381 16.141 6.12828 17.1425 4.3468 18.6828C4.16702 18.8407 4.00358 18.9713 3.98723 18.9713C3.93275 18.9713 3.31713 18.0188 3.05563 17.5453C2.51084 16.5437 2.03687 15.0796 1.87343 13.9093C1.76992 13.1745 1.78081 11.6777 1.89522 10.932C2.46725 7.24713 4.8807 4.12831 8.30202 2.65326C9.32623 2.21238 10.4213 1.94023 11.7124 1.80416C12.121 1.76061 13.5647 1.82593 14.1204 1.90757Z" fill="#B8B8B8"/>
<path d="M11.4401 4.73794C9.71851 5.11895 8.30749 6.40349 7.77359 8.08537C7.32686 9.47333 7.53388 11.0627 8.31839 12.2601C8.84684 13.0711 9.51694 13.659 10.3832 14.0726C11.1241 14.4264 11.5817 14.5244 12.5024 14.5244C13.4231 14.5244 13.8807 14.4264 14.6217 14.0726C16.365 13.2344 17.4601 11.5308 17.4601 9.63662C17.4601 8.76574 17.3021 8.1017 16.9153 7.32335C16.2561 6.01159 14.9976 5.04274 13.5321 4.73794C13.0581 4.63996 11.8977 4.63996 11.4401 4.73794Z" fill="#B8B8B8"/>
</svg>
