<svg width="25" height="25" viewBox="0 0 25 25" fill="none" xmlns="http://www.w3.org/2000/svg">
<path d="M11.7519 0.0373306C11.3135 0.119848 10.7641 0.314358 10.4076 0.514759C9.72381 0.903776 1.61148 6.55631 1.30172 6.86281C0.647124 7.51117 0.185399 8.43656 0.050973 9.37963C0.00421607 9.7156 -0.00747316 11.5133 0.00421607 15.598C0.0275945 22.0757 -0.00747316 21.5688 0.501008 22.6121C0.728948 23.0836 0.85753 23.2546 1.30172 23.7084C1.75176 24.1564 1.92125 24.286 2.38882 24.5159C3.44669 25.0405 2.56416 24.9992 12.5 24.9992C22.4358 24.9992 21.5533 25.0405 22.6112 24.5159C23.0788 24.286 23.2482 24.1564 23.6983 23.7084C24.1425 23.2546 24.2711 23.0836 24.499 22.6121C25.0075 21.5688 24.9724 22.0757 24.9958 15.598C25.0075 11.5133 24.9958 9.7156 24.949 9.37963C24.8146 8.43656 24.3529 7.51117 23.6983 6.85691C23.3067 6.4679 15.0775 0.768209 14.4463 0.444029C14.2125 0.326145 13.8443 0.184685 13.628 0.125744C13.1604 0.00785828 12.1844 -0.0392952 11.7519 0.0373306ZM16.0126 19.5412C16.2522 19.7829 16.2522 20.1365 16.0126 20.3782L15.8431 20.5491H12.5H9.15688L8.98739 20.3782C8.85296 20.2426 8.81789 20.1542 8.81789 19.9597C8.81789 19.7652 8.85296 19.6768 8.98739 19.5412L9.15688 19.3703H12.5H15.8431L16.0126 19.5412Z" fill="#B8B8B8"/>
</svg>
