<svg width="20" height="20" viewBox="0 0 20 20" fill="none" xmlns="http://www.w3.org/2000/svg">
<path d="M19.4098 7.9776C19.0838 7.65177 18.5555 7.65177 18.2296 7.9776L9.13875 17.1077C7.50902 18.7376 4.86658 18.7378 3.23661 17.1081C1.60665 15.4784 1.60649 12.836 3.23618 11.206L12.0408 2.36552C13.0264 1.39557 14.6118 1.40828 15.5817 2.39392C16.5405 3.36825 16.5407 4.93147 15.5822 5.90604L6.77757 14.7465C6.44764 15.0626 5.9273 15.0626 5.59741 14.7465C5.27159 14.4206 5.27159 13.8923 5.59741 13.5664L13.4363 5.69157C13.7565 5.36 13.7474 4.83163 13.4158 4.5114C13.0924 4.199 12.5796 4.199 12.2562 4.5114L4.41724 12.3862C3.43931 13.3639 3.43919 14.9493 4.41693 15.9273C4.41705 15.9274 4.41713 15.9275 4.41724 15.9276C5.40828 16.8733 6.96755 16.8733 7.95859 15.9276L16.7623 7.08628C18.3712 5.43593 18.3375 2.79384 16.6871 1.185C15.0662 -0.395158 12.4812 -0.394962 10.8606 1.18536L2.05602 10.0258C-0.225705 12.3075 -0.225705 16.007 2.05602 18.2887C4.33774 20.5704 8.03719 20.5704 10.3189 18.2887L19.4098 9.16112C19.7366 8.83604 19.738 8.3076 19.4129 7.98076C19.4119 7.97971 19.4108 7.97865 19.4098 7.9776Z" fill="#90A0B7"/>
</svg>
